<?xml version="1.0" encoding="UTF-8"?>
<svg id="Ebene_1" xmlns="http://www.w3.org/2000/svg" xmlns:xlink="http://www.w3.org/1999/xlink" viewBox="0 0 654 220">
  <defs>
    <linearGradient id="Unbenannter_Verlauf_2" data-name="Unbenannter Verlauf 2" x1="-2157.94" y1="-9029.69" x2="-1944.45" y2="-9029.69" gradientTransform="translate(6297.87 -1890.38) rotate(-95.1) scale(.7)" gradientUnits="userSpaceOnUse">
      <stop offset=".06" stop-color="#662d91"/>
      <stop offset=".44" stop-color="#93278f"/>
      <stop offset=".75" stop-color="#ed1e79"/>
    </linearGradient>
  </defs>
  <g>
    <path d="M259.66,173.6c-8.81,0-16.45-1.42-22.93-4.27s-11.55-6.82-15.22-11.94c-3.66-5.11-5.74-11.09-6.23-17.92h16c.44,4.59,2,8.38,4.68,11.36,2.68,2.98,6.11,5.2,10.29,6.64,4.18,1.45,8.65,2.17,13.41,2.17,5.52,0,10.49-.9,14.89-2.71,4.4-1.8,7.89-4.35,10.46-7.63,2.57-3.28,3.86-7.08,3.86-11.4,0-3.94-1.11-7.14-3.32-9.6s-5.16-4.48-8.82-6.07c-3.66-1.59-7.68-2.98-12.06-4.18l-14.77-4.18c-9.84-2.79-17.5-6.78-22.97-11.98-5.47-5.19-8.2-11.84-8.2-19.93,0-6.89,1.86-12.92,5.58-18.09,3.72-5.17,8.75-9.17,15.09-12.02,6.34-2.84,13.45-4.27,21.33-4.27s15.15,1.42,21.33,4.27c6.18,2.84,11.06,6.71,14.64,11.61,3.58,4.9,5.48,10.43,5.7,16.61h-15.26c-.71-5.96-3.56-10.57-8.53-13.82-4.98-3.25-11.1-4.88-18.38-4.88-5.25,0-9.86.86-13.82,2.58-3.97,1.72-7.04,4.07-9.23,7.05-2.19,2.98-3.28,6.39-3.28,10.21,0,4.27,1.33,7.7,3.98,10.29,2.65,2.6,5.8,4.62,9.43,6.07,3.64,1.45,6.93,2.58,9.88,3.4l12.22,3.36c3.28.88,6.9,2.08,10.87,3.61,3.96,1.53,7.75,3.57,11.36,6.11s6.58,5.77,8.9,9.68c2.32,3.91,3.49,8.71,3.49,14.4,0,6.67-1.74,12.69-5.21,18.05-3.47,5.36-8.52,9.6-15.13,12.71-6.62,3.12-14.63,4.68-24.04,4.68Z" fill="#662d91"/>
    <path d="M367.24,173.44c-9.63,0-18.03-1.89-25.22-5.66-7.19-3.77-12.76-8.94-16.69-15.5s-5.91-14.03-5.91-22.39V49.25h15.59v79.41c0,5.85,1.3,11.06,3.9,15.63,2.6,4.57,6.3,8.16,11.12,10.79,4.81,2.62,10.55,3.94,17.23,3.94s12.4-1.31,17.19-3.94c4.78-2.62,8.46-6.22,11.03-10.79,2.57-4.57,3.86-9.77,3.86-15.63V49.25h15.59v80.64c0,8.37-1.97,15.83-5.91,22.39s-9.47,11.73-16.61,15.5-15.52,5.66-25.14,5.66Z" fill="#662d91"/>
    <path d="M523.8,171.47l-27.39-50.22c1.59-.56,3.1-1.19,4.51-1.91,6.12-3.14,10.68-7.51,13.66-13.08,2.98-5.58,4.47-12,4.47-19.28s-1.49-13.75-4.47-19.44c-2.98-5.69-7.55-10.16-13.7-13.41-6.15-3.25-13.99-4.88-23.5-4.88h-41.84v122.23h15.59v-47.41h26.33c.97,0,1.9-.03,2.83-.06l25.47,47.47h18.05ZM451.12,62.94h25.43c6.51,0,11.73,1,15.67,2.99,3.94,2,6.81,4.79,8.61,8.37,1.8,3.58,2.71,7.81,2.71,12.67s-.9,8.87-2.71,12.35c-1.8,3.47-4.66,6.15-8.57,8.04-3.91,1.89-9.09,2.83-15.55,2.83h-25.59v-47.25Z" fill="#662d91"/>
    <path d="M538.1,171.47V49.25h73.91v13.78h-58.32v41.84h52.75v13.78h-52.75v52.83h-15.59Z" fill="#662d91"/>
  </g>
  <g>
    <path d="M142.36,69.99c-2.76.84-5.48,1.03-8.07.73-5.77-.68-10.98-.63-15.51.59-22.77,6.15-14.95,40.46,8.32,36.59,2.55-.42,5.27-1.14,8.17-2.13v.03c1.86-.64,3.82-1.09,5.88-1.27,14.24-1.27,26.77,9.54,27.46,23.97.57,12-7.62,22.85-19.29,25.7-4.28,1.04-8.44.88-12.29-.13l.02.03c-24.43-6.35-42.6,11.73-45.75,23.84h0c-1.38,5.3-6.17,9.35-12.11,9.37-5.89.02-11.09-4.21-12.26-9.98-1.51-7.45,3.79-14.35,11.15-15,.77-.07,1.52-.06,2.26.01h0c5.32.48,12.57-1.24,19.33-5.32,19.96-12.05,5.22-42.6-16.6-34.41-.18.07-.35.13-.53.2h0c-3.3,1.27-6.91,1.95-10.73,1.88-13.75-.27-25.46-10.62-27.41-24.23-2.32-16.19,9.41-30.81,25.49-32.24,3.08-.27,6.08-.04,8.94.63,25.63,5.96,34.6-4.25,38.73-22h0c1.86-8.01,8.68-14.3,17.33-15.07,11.39-1.02,21.38,7.94,21.33,19.65-.04,8.49-5.7,16.11-13.82,18.57Z" fill="url(#Unbenannter_Verlauf_2)"/>
    <circle cx="123.74" cy="89.02" r="10.24" transform="translate(30.63 209.71) rotate(-88.08)" fill="#ed1e79"/>
    <circle cx="89.98" cy="140.67" r="13.19" transform="translate(-75.66 119.48) rotate(-50.1)" fill="#93278f"/>
    <circle cx="119.54" cy="175.03" r="6.03" transform="translate(-15.09 11.33) rotate(-5.1)" fill="#662d91"/>
  </g>
</svg>